<svg xmlns="http://www.w3.org/2000/svg" xmlns:xlink="http://www.w3.org/1999/xlink" xmlns:lucid="lucid" width="4369.66" height="3001.05"><g transform="translate(0 0)" lucid:page-tab-id="0_0"><path d="M1279.02 19.3c24.7 0 44.75 22.4 44.75 50 0 27.63-20.04 50-44.75 50h-134.27c-24.7 0-44.75-22.37-44.75-50 0-27.6 20.04-50 44.75-50z" stroke="#000" stroke-opacity="0" stroke-width="2" fill="#4397ff"/><use xlink:href="#a" transform="matrix(1,0,0,1,1105,24.312591416238774) translate(84.5111111111111 48.00416666666667)"/><path d="M1282.26 2080c26.84 0 48.6 25.9 48.6 57.85 0 31.94-21.76 57.84-48.6 57.84H1136.5c-26.82 0-48.58-25.9-48.58-57.85 0-31.95 21.76-57.85 48.6-57.85z" stroke="#000" stroke-opacity="0" stroke-width="2" fill="#4397ff"/><use xlink:href="#b" transform="matrix(1,0,0,1,1092.9227026152423,2085) translate(104.05 57.4625)"/><path d="M1054.35 159.3h336.6l-21.52 80.7h-336.6z" stroke="#000" stroke-width="2" fill="#fff"/><use xlink:href="#c" transform="matrix(1,0,0,1,1037.8288583401122,164.31259141623877) translate(36.01 16.61875)"/><use xlink:href="#d" transform="matrix(1,0,0,1,1037.8288583401122,164.31259141623877) translate(72.01 16.61875)"/><use xlink:href="#e" transform="matrix(1,0,0,1,1037.8288583401122,164.31259141623877) translate(108.01 16.61875)"/><use xlink:href="#f" transform="matrix(1,0,0,1,1037.8288583401122,164.31259141623877) translate(207.81 16.61875)"/><use xlink:href="#g" transform="matrix(1,0,0,1,1037.8288583401122,164.31259141623877) translate(9.01 38.21875)"/><use xlink:href="#h" transform="matrix(1,0,0,1,1037.8288583401122,164.31259141623877) translate(111.96000000000001 38.21875)"/><use xlink:href="#i" transform="matrix(1,0,0,1,1037.8288583401122,164.31259141623877) translate(122.91000000000001 38.21875)"/><use xlink:href="#j" transform="matrix(1,0,0,1,1037.8288583401122,164.31259141623877) translate(164.86 38.21875)"/><use xlink:href="#k" transform="matrix(1,0,0,1,1037.8288583401122,164.31259141623877) translate(229.61 38.21875)"/><use xlink:href="#l" transform="matrix(1,0,0,1,1037.8288583401122,164.31259141623877) translate(252.96 38.21875)"/><use xlink:href="#m" transform="matrix(1,0,0,1,1037.8288583401122,164.31259141623877) translate(282.96000000000004 38.21875)"/><use xlink:href="#n" transform="matrix(1,0,0,1,1037.8288583401122,164.31259141623877) translate(3.01 59.81875)"/><use xlink:href="#h" transform="matrix(1,0,0,1,1037.8288583401122,164.31259141623877) translate(82.96000000000001 59.81875)"/><use xlink:href="#o" transform="matrix(1,0,0,1,1037.8288583401122,164.31259141623877) translate(93.91000000000001 59.81875)"/><use xlink:href="#p" transform="matrix(1,0,0,1,1037.8288583401122,164.31259141623877) translate(154.81 59.81875)"/><path d="M1136.9 280h150v40h-150z" stroke="#000" stroke-width="2" fill="#fff"/><use xlink:href="#q" transform="matrix(1,0,0,1,1141.8859055600747,285) translate(51.775 18.15)"/><use xlink:href="#r" transform="matrix(1,0,0,1,1141.8859055600747,285) translate(62.724999999999994 18.15)"/><use xlink:href="#s" transform="matrix(1,0,0,1,1141.8859055600747,285) translate(78.225 18.15)"/><path d="M1136.9 360h150v40h-150z" stroke="#000" stroke-width="2" fill="#fff"/><use xlink:href="#t" transform="matrix(1,0,0,1,1141.885905560075,365) translate(49.275 18.15)"/><use xlink:href="#r" transform="matrix(1,0,0,1,1141.885905560075,365) translate(65.225 18.15)"/><use xlink:href="#u" transform="matrix(1,0,0,1,1141.885905560075,365) translate(80.725 18.15)"/><path d="M1209.4 440l77.5 60-77.5 60-77.5-60z" stroke="#000" stroke-width="2" fill="#fff"/><use xlink:href="#v" transform="matrix(1,0,0,1,1136.885905560075,444.99999999999994) translate(11.01 59.0875)"/><use xlink:href="#w" transform="matrix(1,0,0,1,1136.885905560075,444.99999999999994) translate(97.31740740740742 59.0875)"/><use xlink:href="#x" transform="matrix(1,0,0,1,1136.885905560075,444.99999999999994) translate(112.81740740740742 59.0875)"/><path d="M1360 470.76h218.1v58.48H1360z" stroke="#000" stroke-width="2" fill="#fff"/><use xlink:href="#v" transform="matrix(1,0,0,1,1365,475.7627737371633) translate(45.21666666666667 17.4625)"/><use xlink:href="#y" transform="matrix(1,0,0,1,1365,475.7627737371633) translate(131.52407407407406 17.4625)"/><use xlink:href="#z" transform="matrix(1,0,0,1,1365,475.7627737371633) translate(147.02407407407406 17.4625)"/><use xlink:href="#A" transform="matrix(1,0,0,1,1365,475.7627737371633) translate(45.21666666666667 39.0625)"/><use xlink:href="#y" transform="matrix(1,0,0,1,1365,475.7627737371633) translate(131.52407407407406 39.0625)"/><use xlink:href="#B" transform="matrix(1,0,0,1,1365,475.7627737371633) translate(147.02407407407406 39.0625)"/><path d="M1211.9 620l80 60-80 60-80-60z" stroke="#000" stroke-width="2" fill="#fff"/><use xlink:href="#C" transform="matrix(1,0,0,1,1136.885905560075,625) translate(25.925370370370366 59.0875)"/><use xlink:href="#D" transform="matrix(1,0,0,1,1136.885905560075,625) translate(91.82537037037038 59.0875)"/><use xlink:href="#x" transform="matrix(1,0,0,1,1136.885905560075,625) translate(107.32537037037038 59.0875)"/><path d="M1209.4 900l80 60-80 60-80-60z" stroke="#000" stroke-width="2" fill="#fff"/><use xlink:href="#E" transform="matrix(1,0,0,1,1134.385905560075,905) translate(29.279999999999994 59.0875)"/><use xlink:href="#D" transform="matrix(1,0,0,1,1134.385905560075,905) translate(57.23 59.0875)"/><use xlink:href="#F" transform="matrix(1,0,0,1,1134.385905560075,905) translate(72.72999999999999 59.0875)"/><path d="M1360 1120h218.1v40H1360z" stroke="#000" stroke-width="2" fill="#fff"/><use xlink:href="#E" transform="matrix(1,0,0,1,1365,1125) translate(53.3 18.15)"/><use xlink:href="#r" transform="matrix(1,0,0,1,1365,1125) translate(81.25 18.15)"/><use xlink:href="#G" transform="matrix(1,0,0,1,1365,1125) translate(96.75 18.15)"/><use xlink:href="#F" transform="matrix(1,0,0,1,1365,1125) translate(107.7 18.15)"/><path d="M1209.4 1080l80 60-80 60-80-60z" stroke="#000" stroke-width="2" fill="#fff"/><use xlink:href="#E" transform="matrix(1,0,0,1,1134.385905560075,1085) translate(23.805 59.0875)"/><use xlink:href="#H" transform="matrix(1,0,0,1,1134.385905560075,1085) translate(51.755 59.0875)"/><use xlink:href="#G" transform="matrix(1,0,0,1,1134.385905560075,1085) translate(67.255 59.0875)"/><use xlink:href="#F" transform="matrix(1,0,0,1,1134.385905560075,1085) translate(78.205 59.0875)"/><path d="M1067.1 1260h284.57v60H1067.1z" stroke="#000" stroke-width="2" fill="#fff"/><use xlink:href="#I" transform="matrix(1,0,0,1,1072.097256867696,1265) translate(85.07499999999999 30.025)"/><use xlink:href="#r" transform="matrix(1,0,0,1,1072.097256867696,1265) translate(113.02499999999999 30.025)"/><use xlink:href="#J" transform="matrix(1,0,0,1,1072.097256867696,1265) translate(128.52499999999998 30.025)"/><use xlink:href="#K" transform="matrix(1,0,0,1,1072.097256867696,1265) translate(156.475 30.025)"/><path d="M1209.4 1360l80 60-80 60-80-60z" stroke="#000" stroke-width="2" fill="#fff"/><use xlink:href="#I" transform="matrix(1,0,0,1,1134.385905560075,1365) translate(42.33 59.0875)"/><use xlink:href="#D" transform="matrix(1,0,0,1,1134.385905560075,1365) translate(70.28 59.0875)"/><use xlink:href="#L" transform="matrix(1,0,0,1,1134.385905560075,1365) translate(85.78 59.0875)"/><path d="M1206.9 1540l80 60-80 60-80-60z" stroke="#000" stroke-width="2" fill="#fff"/><use xlink:href="#I" transform="matrix(1,0,0,1,1131.8859055600747,1545) translate(45.305 59.0875)"/><use xlink:href="#H" transform="matrix(1,0,0,1,1131.8859055600747,1545) translate(73.255 59.0875)"/><use xlink:href="#M" transform="matrix(1,0,0,1,1131.8859055600747,1545) translate(88.755 59.0875)"/><path d="M1390.94 1400h218.12v40h-218.12z" stroke="#000" stroke-width="2" fill="#fff"/><use xlink:href="#I" transform="matrix(1,0,0,1,1395.9429527800373,1405) translate(71.82499999999999 18.15)"/><use xlink:href="#r" transform="matrix(1,0,0,1,1395.9429527800373,1405) translate(99.77499999999999 18.15)"/><use xlink:href="#L" transform="matrix(1,0,0,1,1395.9429527800373,1405) translate(115.27499999999999 18.15)"/><path d="M1206.9 1720l80 60-80 60-80-60z" stroke="#000" stroke-width="2" fill="#fff"/><use xlink:href="#t" transform="matrix(1,0,0,1,1131.8859055600747,1725) translate(33.82999999999999 59.0875)"/><use xlink:href="#H" transform="matrix(1,0,0,1,1131.8859055600747,1725) translate(49.779999999999994 59.0875)"/><use xlink:href="#N" transform="matrix(1,0,0,1,1131.8859055600747,1725) translate(65.28 59.0875)"/><path d="M1209.4 1900l80 60-80 60-80-60z" stroke="#000" stroke-width="2" fill="#fff"/><use xlink:href="#q" transform="matrix(1,0,0,1,1134.385905560075,1905) translate(30.32999999999999 59.0875)"/><use xlink:href="#H" transform="matrix(1,0,0,1,1134.385905560075,1905) translate(41.279999999999994 59.0875)"/><use xlink:href="#O" transform="matrix(1,0,0,1,1134.385905560075,1905) translate(56.779999999999994 59.0875)"/><path d="M1354.17 650.76h218.12v58.48h-218.13z" stroke="#000" stroke-width="2" fill="#fff"/><use xlink:href="#C" transform="matrix(1,0,0,1,1359.1745542524538,655.7627737371633) translate(55.420370370370364 17.4625)"/><use xlink:href="#r" transform="matrix(1,0,0,1,1359.1745542524538,655.7627737371633) translate(121.32037037037037 17.4625)"/><use xlink:href="#P" transform="matrix(1,0,0,1,1359.1745542524538,655.7627737371633) translate(136.82037037037037 17.4625)"/><use xlink:href="#Q" transform="matrix(1,0,0,1,1359.1745542524538,655.7627737371633) translate(55.420370370370364 39.0625)"/><use xlink:href="#R" transform="matrix(1,0,0,1,1359.1745542524538,655.7627737371633) translate(121.32037037037037 39.0625)"/><use xlink:href="#B" transform="matrix(1,0,0,1,1359.1745542524538,655.7627737371633) translate(136.82037037037037 39.0625)"/><path d="M939.4 795h540v60h-540z" stroke="#000" stroke-width="2" fill="#fff"/><use xlink:href="#S" transform="matrix(1,0,0,1,944.3859055600749,800) translate(10.718518518518522 30.3375)"/><use xlink:href="#y" transform="matrix(1,0,0,1,944.3859055600749,800) translate(34.47777777777778 30.3375)"/><use xlink:href="#T" transform="matrix(1,0,0,1,944.3859055600749,800) translate(49.97777777777778 30.3375)"/><use xlink:href="#U" transform="matrix(1,0,0,1,944.3859055600749,800) translate(97.44074074074075 30.3375)"/><use xlink:href="#V" transform="matrix(1,0,0,1,944.3859055600749,800) translate(112.94074074074075 30.3375)"/><use xlink:href="#W" transform="matrix(1,0,0,1,944.3859055600749,800) translate(283.40555555555557 30.3375)"/><use xlink:href="#X" transform="matrix(1,0,0,1,944.3859055600749,800) translate(294.35555555555555 30.3375)"/><use xlink:href="#U" transform="matrix(1,0,0,1,944.3859055600749,800) translate(324.71296296296293 30.3375)"/><use xlink:href="#Y" transform="matrix(1,0,0,1,944.3859055600749,800) translate(340.21296296296293 30.3375)"/><path d="M1360 940h218.1v40H1360z" stroke="#000" stroke-width="2" fill="#fff"/><use xlink:href="#E" transform="matrix(1,0,0,1,1365,945) translate(58.775 18.15)"/><use xlink:href="#r" transform="matrix(1,0,0,1,1365,945) translate(86.725 18.15)"/><use xlink:href="#F" transform="matrix(1,0,0,1,1365,945) translate(102.225 18.15)"/><path d="M1400 1580h218.1v40H1400z" stroke="#000" stroke-width="2" fill="#fff"/><use xlink:href="#I" transform="matrix(1,0,0,1,1405,1585) translate(74.8 18.15)"/><use xlink:href="#r" transform="matrix(1,0,0,1,1405,1585) translate(102.75 18.15)"/><use xlink:href="#M" transform="matrix(1,0,0,1,1405,1585) translate(118.25 18.15)"/><path d="M1211.9 321.5v21.12" stroke="#666" fill="none"/><path d="M1212.4 321.5h-1v-.5h1z" fill="#666"/><path d="M1211.9 357.38l-4.65-14.26h9.27z" stroke="#666" fill="#666"/><path d="M1211.9 401.5v17.12c0 .7-.57 1.25-1.26 1.25-.7 0-1.25.56-1.25 1.25v1.23" stroke="#666" fill="none"/><path d="M1212.4 401.5h-1v-.5h1z" fill="#666"/><path d="M1209.4 437.12l-4.65-14.27h9.27z" stroke="#666" fill="#666"/><path d="M1308.26 500.5h-19.24v-1h19.24zm34.36 0h-3.36v-1h3.36z" fill="#666"/><path d="M1289.03 500.5h-1.16l.65-.5-.65-.5h1.16zM1357.38 500l-14.26 4.64v-9.28z" fill="#666"/><path d="M1359 500l-16.38 5.32v-10.64zm-15.38 3.95l12.14-3.95-12.14-3.95z" fill="#666"/><use xlink:href="#Z" transform="matrix(1,0,0,1,1308.2597151043672,489.1999999999999) translate(0 14.4)"/><path d="M1212.4 602.37h-1v-1.56h1zm-2.5-23.16h-1v-17.44h1z" fill="#666"/><path d="M1209.9 561.78h-1v-.9l.5.38.5-.38zM1211.9 617.13l-4.65-14.26h9.27z" fill="#666"/><path d="M1211.9 618.75l-5.34-16.38h10.65zm-3.96-15.38l3.95 12.14 3.93-12.13z" fill="#666"/><use xlink:href="#aa" transform="matrix(1,0,0,1,1198.6859055600748,579.2073321220616) translate(0 14.4)"/><path d="M1307.86 680.5h-13.8v-1h13.8z" fill="#666"/><path d="M1294.07 680.5h-1.18l.65-.5-.66-.5h1.17zM1351.56 680l-12.7 4.12v-8.24z" fill="#666"/><path d="M1353.17 680l-14.3 4.65v-1.05l11.07-3.6-11.08-3.6v-1.05z" fill="#666"/><use xlink:href="#Z" transform="matrix(1,0,0,1,1307.8635632395976,669.2) translate(0 14.4)"/><path d="M1209.4 856.5v25.87" stroke="#666" fill="none"/><path d="M1209.9 856.5h-1v-.5h1z" fill="#666"/><path d="M1209.4 897.13l-4.65-14.26h9.27z" stroke="#666" fill="#666"/><path d="M1309.53 960.5h-17.98v-1h17.98zm33.1 0h-2.1v-1h2.1z" fill="#666"/><path d="M1291.57 960.5h-1.18l.65-.5-.66-.5h1.17zM1357.38 960l-14.26 4.64v-9.28z" fill="#666"/><path d="M1359 960l-16.38 5.32v-10.64zm-15.38 3.95l12.14-3.95-12.14-3.95z" fill="#666"/><use xlink:href="#Z" transform="matrix(1,0,0,1,1309.5262861133708,949.2) translate(0 14.4)"/><path d="M1209.9 1062.37h-1v-1.57h1zm0-23.17h-1v-17.45h1z" fill="#666"/><path d="M1209.9 1021.76h-1v-.88l.5.37.5-.38zM1209.4 1077.13l-4.65-14.26h9.27z" fill="#666"/><path d="M1209.4 1078.75l-5.34-16.38h10.65zm-3.96-15.38l3.95 12.14 3.93-12.13z" fill="#666"/><use xlink:href="#aa" transform="matrix(1,0,0,1,1197.4359055600748,1039.2) translate(0 14.4)"/><path d="M1309.53 1140.5h-17.98v-1h17.98zm33.1 0h-2.1v-1h2.1z" fill="#666"/><path d="M1291.57 1140.5h-1.18l.65-.5-.66-.5h1.17zM1357.38 1140l-14.26 4.64v-9.28z" fill="#666"/><path d="M1359 1140l-16.38 5.32v-10.64zm-15.38 3.95l12.14-3.95-12.14-3.95z" fill="#666"/><use xlink:href="#Z" transform="matrix(1,0,0,1,1309.5262861133708,1129.2) translate(0 14.4)"/><path d="M1209.9 1242.62h-1v-1.7h1zm0-23.3h-1v-17.57h1z" fill="#666"/><path d="M1209.9 1201.76h-1v-.88l.5.37.5-.38zM1209.4 1257.38l-4.65-14.26h9.27z" fill="#666"/><path d="M1209.4 1259l-5.34-16.38h10.65zm-3.96-15.38l3.95 12.14 3.93-12.14z" fill="#666"/><use xlink:href="#aa" transform="matrix(1,0,0,1,1197.4359055600748,1219.325) translate(0 14.4)"/><path d="M1209.4 1321.5v20.87" stroke="#666" fill="none"/><path d="M1209.9 1321.5h-1v-.5h1z" fill="#666"/><path d="M1209.4 1357.13l-4.65-14.26h9.27z" stroke="#666" fill="#666"/><path d="M1325 1420.5h-33.45v-1H1325zm48.56 0H1356v-1h17.56z" fill="#666"/><path d="M1291.57 1420.5h-1.18l.65-.5-.66-.5h1.17zM1388.32 1420l-14.26 4.64v-9.28z" fill="#666"/><path d="M1389.94 1420l-16.38 5.32v-10.64zm-15.38 3.95l12.15-3.95-12.14-3.95z" fill="#666"/><use xlink:href="#Z" transform="matrix(1,0,0,1,1324.9977625033894,1409.2) translate(0 14.4)"/><path d="M1207.4 1522.37h-1v-1.57h1zm2.5-23.17h-1v-17.45h1z" fill="#666"/><path d="M1209.9 1481.76h-1v-.88l.5.37.5-.38zM1206.9 1537.13l-4.65-14.26h9.27z" fill="#666"/><path d="M1206.9 1538.75l-5.34-16.38h10.65zm-3.96-15.38l3.95 12.14 3.93-12.13z" fill="#666"/><use xlink:href="#aa" transform="matrix(1,0,0,1,1196.1859055600746,1499.2) translate(0 14.4)"/><path d="M1328.28 1600.5h-39.23v-1h39.23zm54.34 0h-23.34v-1h23.34z" fill="#666"/><path d="M1289.07 1600.5h-1.18l.65-.5-.66-.5h1.17zM1397.38 1600l-14.26 4.64v-9.28z" fill="#666"/><path d="M1399 1600l-16.38 5.32v-10.64zm-15.38 3.95l12.14-3.95-12.14-3.95z" fill="#666"/><use xlink:href="#Z" transform="matrix(1,0,0,1,1328.2762861133706,1589.2) translate(0 14.4)"/><path d="M1207.4 1702.37h-1v-1.57h1zm0-23.17h-1v-17.45h1z" fill="#666"/><path d="M1207.4 1661.76h-1v-.88l.5.37.5-.38zM1206.9 1717.13l-4.65-14.26h9.27z" fill="#666"/><path d="M1206.9 1718.75l-5.34-16.38h10.65zm-3.96-15.38l3.95 12.14 3.93-12.13z" fill="#666"/><use xlink:href="#aa" transform="matrix(1,0,0,1,1194.9359055600746,1679.2) translate(0 14.4)"/><path d="M1209.9 1882.37h-1v-1.57h1zm-2.5-23.17h-1v-17.45h1z" fill="#666"/><path d="M1207.4 1841.76h-1v-.88l.5.37.5-.38zM1209.4 1897.13l-4.65-14.26h9.27z" fill="#666"/><path d="M1209.4 1898.75l-5.34-16.38h10.65zm-3.96-15.38l3.95 12.14 3.93-12.13z" fill="#666"/><use xlink:href="#aa" transform="matrix(1,0,0,1,1196.1859055600746,1859.2) translate(0 14.4)"/><path d="M869.9 1771.95l.58 2.97 1.6 2.38 2.4 1.6 2.96.6h247.28v1H877.34l-3.26-.66-2.7-1.82-1.84-2.7-.65-3.27v-372.83h1zm0-394.33h-1V757.38h1z" fill="#666"/><path d="M1125.22 1780l.67.5h-1.2v-1h1.2zM874.02 756.88h-9.27l4.64-14.26z" fill="#666"/><path d="M874.7 757.38h-10.64L869.4 741zm-9.26-1h7.9l-3.95-12.14z" fill="#666"/><g><use xlink:href="#Z" transform="matrix(1,0,0,1,853.8859055600749,1377.6166666666666) translate(0 14.4)"/></g><path d="M869.4 698.5V388c0-4.42 3.57-8 8-8h242.1" stroke="#666" fill="none"/><path d="M869.9 699h-1v-.5h1z" fill="#666"/><path d="M1134.27 380l-14.27 4.64v-9.28z" stroke="#666" fill="#666"/><path d="M680 880h140v40H680z" stroke="#000" stroke-width="2" fill="#fff"/><g><use xlink:href="#q" transform="matrix(1,0,0,1,685,885) translate(33.55 18.15)"/><use xlink:href="#r" transform="matrix(1,0,0,1,685,885) translate(44.5 18.15)"/><use xlink:href="#ab" transform="matrix(1,0,0,1,685,885) translate(60 18.15)"/><use xlink:href="#ac" transform="matrix(1,0,0,1,685,885) translate(70.94999999999999 18.15)"/><use xlink:href="#s" transform="matrix(1,0,0,1,685,885) translate(86.44999999999999 18.15)"/></g><path d="M1211.9 119.8v22.13" stroke="#666" fill="none"/><path d="M1212.4 119.83h-1v-.52h1z" fill="#666"/><path d="M1211.9 156.7l-4.65-14.27h9.27z" stroke="#666" fill="#666"/><path d="M1211.9 241.5v21.12" stroke="#666" fill="none"/><path d="M1212.4 241.5h-1v-.5h1z" fill="#666"/><path d="M1211.9 277.38l-4.65-14.26h9.27z" stroke="#666" fill="#666"/><path d="M1469.56 598.86l-.66 3.26-1.83 2.7-2.7 1.83-3.26.66h-232.83v-1H1461l2.97-.6 2.38-1.6 1.6-2.37.6-2.97v-68.02h1zM1469.56 530.75h-1v-.5h1zM1227.77 611.45l-14.27-4.64 14.27-4.63z" fill="#666"/><path d="M1228.27 612.13l-16.38-5.32 16.37-5.3zm-13.15-5.32l12.15 3.96v-7.9zM1212.4 756.83h-1v-15.08h1z" fill="#666"/><path d="M1212.4 741.76h-1v-.88l.5.37.5-.38zM1211.9 792.38l-4.55-13.96h9.07z" fill="#666"/><path d="M1211.9 794l-5.07-15.58h10.12zm-3.96-15.38l3.95 12.14 3.93-12.14z" fill="#666"/><g><use xlink:href="#ad" transform="matrix(1,0,0,1,1199.9359055600748,756.825) translate(0 14.4)"/></g><path d="M1463.73 752.05l-.66 3.26-1.82 2.72-2.7 1.82-3.27.66h-198.9v-1h198.8l2.97-.6 2.38-1.6 1.6-2.38.6-2.97v-41.2h1zM1463.73 710.75h-1v-.5h1zM1255.88 764.64l-14.26-4.64 14.26-4.64z" fill="#666"/><path d="M1256.38 765.32L1240 760l16.38-5.32zm-13.14-5.32l12.14 3.95v-7.9zM1469.56 1052.05l-.66 3.26-1.83 2.72-2.7 1.82-3.26.66H1256.4v-1H1461l2.97-.6 2.38-1.6 1.6-2.38.6-2.97V981.5h1zM1469.56 981.5h-1v-.5h1zM1255.88 1064.64l-14.26-4.64 14.26-4.64z" fill="#666"/><path d="M1256.38 1065.32L1240 1060l16.38-5.32zm-13.14-5.32l12.14 3.95v-7.9zM1469.56 1232.05l-.66 3.26-1.83 2.72-2.7 1.82-3.26.66H1256.4v-1H1461l2.97-.6 2.38-1.6 1.6-2.38.6-2.97v-70.45h1zM1469.56 1161.5h-1v-.5h1zM1255.88 1244.64l-14.26-4.64 14.26-4.64z" fill="#666"/><path d="M1256.38 1245.32L1240 1240l16.38-5.32zm-13.14-5.32l12.14 3.95v-7.9zM1500.5 1512.05l-.66 3.26-1.82 2.72-2.7 1.82-3.27.66h-235.67v-1h235.57l2.97-.6 2.38-1.6 1.6-2.38.6-2.97v-70.45h1zM1500.5 1441.5h-1v-.5h1zM1255.88 1524.64l-14.26-4.64 14.26-4.64z" fill="#666"/><path d="M1256.38 1525.32L1240 1520l16.38-5.32zm-13.14-5.32l12.14 3.95v-7.9zM1509.56 1692.05l-.66 3.26-1.83 2.72-2.7 1.82-3.26.66H1236.4v-1H1501l2.97-.6 2.38-1.6 1.6-2.38.6-2.97v-70.45h1zM1509.56 1621.5h-1v-.5h1zM1235.88 1704.64l-14.26-4.64 14.26-4.64z" fill="#666"/><path d="M1236.38 1705.32L1220 1700l16.38-5.32zm-13.14-5.32l12.14 3.95v-7.9zM1209.9 2063.62h-1v-9.78h1zm0-31.38h-1v-10.5h1z" fill="#666"/><path d="M1209.9 2021.76h-1v-.88l.5.37.5-.38zM1209.4 2078.38l-4.65-14.26h9.27z" fill="#666"/><path d="M1209.4 2080l-5.34-16.38h10.65zm-3.96-15.38l3.95 12.14 3.93-12.14zM750.5 1951.95l.6 2.97 1.6 2.38 2.38 1.6 2.97.6h369.17v1H757.95l-3.26-.66-2.72-1.82-1.82-2.7-.66-3.27v-311.9h1zm0-333.4h-1V937.4h1z" fill="#666"/><path d="M1127.72 1960l.67.5h-1.2v-1h1.2zM754.64 936.88h-9.28l4.64-14.26z" fill="#666"/><path d="M755.32 937.38h-10.64L750 921zm-9.27-1h7.9L750 924.24z" fill="#666"/><g><use xlink:href="#ae" transform="matrix(1,0,0,1,734.5,1618.5596194467041) translate(0 14.4)"/></g><path d="M1209.9 2083.62h-1v-29.78h1zm0-51.38h-1v-10.5h1z" fill="#666"/><path d="M1209.9 2021.76h-1v-.88l.5.37.5-.38zM1209.4 2098.38l-4.65-14.26h9.27z" fill="#666"/><path d="M1209.4 2100l-5.34-16.38h10.65zm-3.96-15.38l3.95 12.14 3.93-12.14z" fill="#666"/><g><use xlink:href="#ad" transform="matrix(1,0,0,1,1197.4359055600748,2032.2383150962764) translate(0 14.4)"/></g><path d="M750 878.5V308c0-4.42 3.58-8 8-8h361.5" stroke="#666" fill="none"/><path d="M750.5 879h-1v-.5h1z" fill="#666"/><path d="M1134.27 300l-14.27 4.64v-9.28z" stroke="#666" fill="#666"/><path d="M799.4 700h140v40h-140z" stroke="#000" stroke-width="2" fill="#fff"/><g><use xlink:href="#t" transform="matrix(1,0,0,1,804.3859055600749,705) translate(28.549999999999997 18.15)"/><use xlink:href="#r" transform="matrix(1,0,0,1,804.3859055600749,705) translate(44.5 18.15)"/><use xlink:href="#af" transform="matrix(1,0,0,1,804.3859055600749,705) translate(60 18.15)"/><use xlink:href="#ac" transform="matrix(1,0,0,1,804.3859055600749,705) translate(75.95 18.15)"/><use xlink:href="#s" transform="matrix(1,0,0,1,804.3859055600749,705) translate(91.45 18.15)"/></g><defs><path fill="#fff" d="M185-189c-5-48-123-54-124 2 14 75 158 14 163 119 3 78-121 87-175 55-17-10-28-26-33-46l33-7c5 56 141 63 141-1 0-78-155-14-162-118-5-82 145-84 179-34 5 7 8 16 11 25" id="ag"/><path fill="#fff" d="M59-47c-2 24 18 29 38 22v24C64 9 27 4 27-40v-127H5v-23h24l9-43h21v43h35v23H59v120" id="ah"/><path fill="#fff" d="M141-36C126-15 110 5 73 4 37 3 15-17 15-53c-1-64 63-63 125-63 3-35-9-54-41-54-24 1-41 7-42 31l-33-3c5-37 33-52 76-52 45 0 72 20 72 64v82c-1 20 7 32 28 27v20c-31 9-61-2-59-35zM48-53c0 20 12 33 32 33 41-3 63-29 60-74-43 2-92-5-92 41" id="ai"/><path fill="#fff" d="M114-163C36-179 61-72 57 0H25l-1-190h30c1 12-1 29 2 39 6-27 23-49 58-41v29" id="aj"/><g id="a"><use transform="matrix(0.05925925925925927,0,0,0.05925925925925927,0,0)" xlink:href="#ag"/><use transform="matrix(0.05925925925925927,0,0,0.05925925925925927,14.222222222222225,0)" xlink:href="#ah"/><use transform="matrix(0.05925925925925927,0,0,0.05925925925925927,20.148148148148152,0)" xlink:href="#ai"/><use transform="matrix(0.05925925925925927,0,0,0.05925925925925927,32.00000000000001,0)" xlink:href="#aj"/><use transform="matrix(0.05925925925925927,0,0,0.05925925925925927,39.05185185185186,0)" xlink:href="#ah"/></g><path fill="#fff" d="M63-220v92h138v28H63V0H30v-248h175v28H63" id="ak"/><path fill="#fff" d="M24-231v-30h32v30H24zM24 0v-190h32V0H24" id="al"/><path fill="#fff" d="M117-194c89-4 53 116 60 194h-32v-121c0-31-8-49-39-48C34-167 62-67 57 0H25l-1-190h30c1 10-1 24 2 32 11-22 29-35 61-36" id="am"/><g id="b"><use transform="matrix(0.05,0,0,0.05,0,0)" xlink:href="#ak"/><use transform="matrix(0.05,0,0,0.05,10.950000000000001,0)" xlink:href="#al"/><use transform="matrix(0.05,0,0,0.05,14.9,0)" xlink:href="#am"/></g><path fill="#666" d="M67-125c0 54 23 88 75 88 28 0 53-7 68-21v-34h-60v-39h108v91C232-14 192 4 140 4 58 4 20-42 15-125 8-236 126-280 215-234c19 10 29 26 37 47l-47 15c-11-23-29-39-63-39-53 1-75 33-75 86" id="an"/><path fill="#666" d="M185-48c-13 30-37 53-82 52C43 2 14-33 14-96s30-98 90-98c62 0 83 45 84 108H66c0 31 8 55 39 56 18 0 30-7 34-22zm-45-69c5-46-57-63-70-21-2 6-4 13-4 21h74" id="ao"/><path fill="#666" d="M135-194c87-1 58 113 63 194h-50c-7-57 23-157-34-157-59 0-34 97-39 157H25l-1-190h47c2 12-1 28 3 38 12-26 28-41 61-42" id="ap"/><path fill="#666" d="M135-150c-39-12-60 13-60 57V0H25l-1-190h47c2 13-1 29 3 40 6-28 27-53 61-41v41" id="aq"/><path fill="#666" d="M133-34C117-15 103 5 69 4 32 3 11-16 11-54c-1-60 55-63 116-61 1-26-3-47-28-47-18 1-26 9-28 27l-52-2c7-38 36-58 82-57s74 22 75 68l1 82c-1 14 12 18 25 15v27c-30 8-71 5-69-32zm-48 3c29 0 43-24 42-57-32 0-66-3-65 30 0 17 8 27 23 27" id="ar"/><path fill="#666" d="M115-3C79 11 28 4 28-45v-112H4v-33h27l15-45h31v45h36v33H77v99c-1 23 16 31 38 25v30" id="as"/><path fill="#666" d="M25-224v-37h50v37H25zM25 0v-190h50V0H25" id="at"/><path fill="#666" d="M195-6C206 82 75 100 31 46c-4-6-6-13-8-21l49-6c3 16 16 24 34 25 40 0 42-37 40-79-11 22-30 35-61 35-53 0-70-43-70-97 0-56 18-96 73-97 30 0 46 14 59 34l2-30h47zm-90-29c32 0 41-27 41-63 0-35-9-62-40-62-32 0-39 29-40 63 0 36 9 62 39 62" id="au"/><g id="e"><use transform="matrix(0.05,0,0,0.05,0,0)" xlink:href="#an"/><use transform="matrix(0.05,0,0,0.05,14,0)" xlink:href="#ao"/><use transform="matrix(0.05,0,0,0.05,24,0)" xlink:href="#ap"/><use transform="matrix(0.05,0,0,0.05,34.95,0)" xlink:href="#ao"/><use transform="matrix(0.05,0,0,0.05,44.95,0)" xlink:href="#aq"/><use transform="matrix(0.05,0,0,0.05,51.95,0)" xlink:href="#ar"/><use transform="matrix(0.05,0,0,0.05,61.95,0)" xlink:href="#as"/><use transform="matrix(0.05,0,0,0.05,67.9,0)" xlink:href="#at"/><use transform="matrix(0.05,0,0,0.05,72.9,0)" xlink:href="#ap"/><use transform="matrix(0.05,0,0,0.05,83.85000000000001,0)" xlink:href="#au"/></g><path fill="#666" d="M35-132v-50h50v50H35zM35 0v-49h50V0H35" id="av"/><use transform="matrix(0.05,0,0,0.05,0,0)" xlink:href="#av" id="f"/><path fill="#666" d="M24-248c93 1 206-16 204 79-1 75-69 88-152 82V0H24v-248zm52 121c47 0 100 7 100-41 0-47-54-39-100-39v80" id="aw"/><path fill="#666" d="M220-157c-53 9-28 100-34 157h-49v-107c1-27-5-49-29-50C55-147 81-57 75 0H25l-1-190h47c2 12-1 28 3 38 10-53 101-56 108 0 13-22 24-43 59-42 82 1 51 116 57 194h-49v-107c-1-25-5-48-29-50" id="ax"/><path fill="#666" d="M137-138c1-29-70-34-71-4 15 46 118 7 119 86 1 83-164 76-172 9l43-7c4 19 20 25 44 25 33 8 57-30 24-41C81-84 22-81 20-136c-2-80 154-74 161-7" id="ay"/><g id="g"><use transform="matrix(0.05,0,0,0.05,0,0)" xlink:href="#aw"/><use transform="matrix(0.05,0,0,0.05,12,0)" xlink:href="#ar"/><use transform="matrix(0.05,0,0,0.05,22,0)" xlink:href="#aq"/><use transform="matrix(0.05,0,0,0.05,29,0)" xlink:href="#ar"/><use transform="matrix(0.05,0,0,0.05,39,0)" xlink:href="#ax"/><use transform="matrix(0.05,0,0,0.05,55,0)" xlink:href="#ao"/><use transform="matrix(0.05,0,0,0.05,65,0)" xlink:href="#as"/><use transform="matrix(0.05,0,0,0.05,70.95,0)" xlink:href="#ao"/><use transform="matrix(0.05,0,0,0.05,80.95,0)" xlink:href="#aq"/><use transform="matrix(0.05,0,0,0.05,87.95,0)" xlink:href="#ay"/></g><use transform="matrix(0.05,0,0,0.05,0,0)" xlink:href="#av" id="h"/><path fill="#666" d="M88-194c31-1 46 15 58 34l-1-101h50l1 261h-48c-2-10 0-23-3-31C134-8 116 4 84 4 32 4 16-41 15-95c0-56 19-97 73-99zm17 164c33 0 40-30 41-66 1-37-9-64-41-64s-38 30-39 65c0 43 13 65 39 65" id="az"/><path fill="#666" d="M76-54c-1 42 2 86-19 110H24C36 42 46 24 48 0H25v-54h51" id="aA"/><g id="i"><use transform="matrix(0.05,0,0,0.05,0,0)" xlink:href="#az"/><use transform="matrix(0.05,0,0,0.05,10.950000000000001,0)" xlink:href="#at"/><use transform="matrix(0.05,0,0,0.05,15.950000000000001,0)" xlink:href="#ax"/><use transform="matrix(0.05,0,0,0.05,31.950000000000003,0)" xlink:href="#aA"/></g><path fill="#666" d="M20 75v-336h95v34H67V41h48v34H20" id="aB"/><path fill="#666" d="M25 0v-261h50V0H25" id="aC"/><path fill="#666" d="M135-194c52 0 70 43 70 98 0 56-19 99-73 100-30 1-46-15-58-35L72 0H24l1-261h50v104c11-23 29-37 60-37zM114-30c31 0 40-27 40-66 0-37-7-63-39-63s-41 28-41 65c0 36 8 64 40 64" id="aD"/><path fill="#666" d="M85 4C-2 5 27-109 22-190h50c7 57-23 150 33 157 60-5 35-97 40-157h50l1 190h-47c-2-12 1-28-3-38-12 25-28 42-61 42" id="aE"/><path fill="#666" d="M4 75V41h49v-268H4v-34h96V75H4" id="aF"/><g id="j"><use transform="matrix(0.05,0,0,0.05,0,0)" xlink:href="#aB"/><use transform="matrix(0.05,0,0,0.05,5.95,0)" xlink:href="#aC"/><use transform="matrix(0.05,0,0,0.05,10.95,0)" xlink:href="#aD"/><use transform="matrix(0.05,0,0,0.05,21.9,0)" xlink:href="#aA"/><use transform="matrix(0.05,0,0,0.05,26.899999999999995,0)" xlink:href="#aE"/><use transform="matrix(0.05,0,0,0.05,37.85,0)" xlink:href="#aD"/><use transform="matrix(0.05,0,0,0.05,48.800000000000004,0)" xlink:href="#aF"/><use transform="matrix(0.05,0,0,0.05,54.75,0)" xlink:href="#aA"/></g><path fill="#666" d="M231 0h-52l-39-155L100 0H48L-1-190h46L77-45c9-52 24-97 36-145h53l37 145 32-145h46" id="aG"/><g id="k"><use transform="matrix(0.05,0,0,0.05,0,0)" xlink:href="#aG"/><use transform="matrix(0.05,0,0,0.05,13.350000000000001,0)" xlink:href="#aA"/></g><path fill="#666" d="M190-63c-7 42-38 67-86 67-59 0-84-38-90-98-12-110 154-137 174-36l-49 2c-2-19-15-32-35-32-30 0-35 28-38 64-6 74 65 87 74 30" id="aH"/><path fill="#666" d="M23 0v-37h61v-169l-59 37v-38l62-41h46v211h57V0H23" id="aI"/><g id="l"><use transform="matrix(0.05,0,0,0.05,0,0)" xlink:href="#aH"/><use transform="matrix(0.05,0,0,0.05,10,0)" xlink:href="#aI"/><use transform="matrix(0.05,0,0,0.05,20,0)" xlink:href="#aA"/></g><path fill="#666" d="M182-182c0 78-84 86-111 141h115V0H12c-6-101 99-100 120-180 1-22-12-31-33-32-23 0-32 14-35 34l-49-3c5-45 32-70 84-70 51 0 83 22 83 69" id="aJ"/><g id="m"><use transform="matrix(0.05,0,0,0.05,0,0)" xlink:href="#aH"/><use transform="matrix(0.05,0,0,0.05,10,0)" xlink:href="#aJ"/></g><g id="n"><use transform="matrix(0.05,0,0,0.05,0,0)" xlink:href="#aw"/><use transform="matrix(0.05,0,0,0.05,12,0)" xlink:href="#ar"/><use transform="matrix(0.05,0,0,0.05,22,0)" xlink:href="#aq"/><use transform="matrix(0.05,0,0,0.05,29,0)" xlink:href="#as"/><use transform="matrix(0.05,0,0,0.05,34.95,0)" xlink:href="#at"/><use transform="matrix(0.05,0,0,0.05,39.95,0)" xlink:href="#aH"/><use transform="matrix(0.05,0,0,0.05,49.95,0)" xlink:href="#aC"/><use transform="matrix(0.05,0,0,0.05,54.95,0)" xlink:href="#ao"/><use transform="matrix(0.05,0,0,0.05,64.95,0)" xlink:href="#ay"/></g><path fill="#666" d="M175 0L67-191c6 58 2 128 3 191H24v-248h59L193-55c-6-58-2-129-3-193h46V0h-61" id="aK"/><g id="o"><use transform="matrix(0.05,0,0,0.05,0,0)" xlink:href="#aK"/><use transform="matrix(0.05,0,0,0.05,12.950000000000001,0)" xlink:href="#aD"/><use transform="matrix(0.05,0,0,0.05,23.900000000000002,0)" xlink:href="#aw"/><use transform="matrix(0.05,0,0,0.05,35.900000000000006,0)" xlink:href="#aH"/><use transform="matrix(0.05,0,0,0.05,45.900000000000006,0)" xlink:href="#aC"/><use transform="matrix(0.05,0,0,0.05,50.900000000000006,0)" xlink:href="#aA"/></g><path fill="#666" d="M230 0l2-204L168 0h-37L68-204 70 0H24v-248h70l56 185 57-185h69V0h-46" id="aL"/><path fill="#666" d="M144 0l-44-69L55 0H2l70-98-66-92h53l41 62 40-62h54l-67 91 71 99h-54" id="aM"/><path fill="#666" d="M147 0H94L2-248h55l64 206c17-72 42-137 63-206h54" id="aN"/><g id="p"><use transform="matrix(0.05,0,0,0.05,0,0)" xlink:href="#aL"/><use transform="matrix(0.05,0,0,0.05,14.950000000000001,0)" xlink:href="#ar"/><use transform="matrix(0.05,0,0,0.05,24.950000000000003,0)" xlink:href="#aM"/><use transform="matrix(0.05,0,0,0.05,34.95,0)" xlink:href="#at"/><use transform="matrix(0.05,0,0,0.05,39.95,0)" xlink:href="#as"/><use transform="matrix(0.05,0,0,0.05,45.900000000000006,0)" xlink:href="#ao"/><use transform="matrix(0.05,0,0,0.05,55.900000000000006,0)" xlink:href="#aq"/><use transform="matrix(0.05,0,0,0.05,61.900000000000006,0)" xlink:href="#aA"/><use transform="matrix(0.05,0,0,0.05,66.9,0)" xlink:href="#aN"/><use transform="matrix(0.05,0,0,0.05,78.9,0)" xlink:href="#ax"/><use transform="matrix(0.05,0,0,0.05,94.9,0)" xlink:href="#ar"/><use transform="matrix(0.05,0,0,0.05,104.9,0)" xlink:href="#aM"/></g><use transform="matrix(0.05,0,0,0.05,0,0)" xlink:href="#as" id="q"/><path fill="#666" d="M15-148v-39h180v39H15zm0 97v-39h180v39H15" id="aO"/><use transform="matrix(0.05,0,0,0.05,0,0)" xlink:href="#aO" id="r"/><use transform="matrix(0.05,0,0,0.05,0,0)" xlink:href="#aI" id="s"/><path fill="#666" d="M135-194c53 0 70 44 70 98 0 56-19 98-73 100-31 1-45-17-59-34 3 33 2 69 2 105H25l-1-265h48c2 10 0 23 3 31 11-24 29-35 60-35zM114-30c33 0 39-31 40-66 0-38-9-64-40-64-56 0-55 130 0 130" id="aP"/><use transform="matrix(0.05,0,0,0.05,0,0)" xlink:href="#aP" id="t"/><use transform="matrix(0.05,0,0,0.05,0,0)" xlink:href="#aI" id="u"/><path fill="#666" d="M123 10C108 53 80 86 19 72V37c35 8 53-11 59-39L3-190h52l48 148c12-52 28-100 44-148h51" id="aQ"/><g id="v"><use transform="matrix(0.05,0,0,0.05,0,0)" xlink:href="#aw"/><use transform="matrix(0.05,0,0,0.05,12,0)" xlink:href="#aH"/><use transform="matrix(0.05,0,0,0.05,22,0)" xlink:href="#aC"/><use transform="matrix(0.05,0,0,0.05,27,0)" xlink:href="#aD"/><use transform="matrix(0.05,0,0,0.05,37.95,0)" xlink:href="#ao"/><use transform="matrix(0.05,0,0,0.05,47.95,0)" xlink:href="#ay"/><use transform="matrix(0.05,0,0,0.05,57.95,0)" xlink:href="#as"/><use transform="matrix(0.05,0,0,0.05,63.900000000000006,0)" xlink:href="#aQ"/><use transform="matrix(0.030864197530864196,0,0,0.030864197530864196,73.9,0)" xlink:href="#aw"/></g><path fill="#666" d="M15-22v-40l146-57-146-57v-40l181 69v56" id="aR"/><use transform="matrix(0.05,0,0,0.05,0,0)" xlink:href="#aR" id="w"/><g id="x"><use transform="matrix(0.05,0,0,0.05,0,0)" xlink:href="#aQ"/><use transform="matrix(0.030864197530864196,0,0,0.030864197530864196,10,0)" xlink:href="#aP"/></g><use transform="matrix(0.05,0,0,0.05,0,0)" xlink:href="#aO" id="y"/><g id="z"><use transform="matrix(0.05,0,0,0.05,0,0)" xlink:href="#aQ"/><use transform="matrix(0.030864197530864196,0,0,0.030864197530864196,10,0)" xlink:href="#aP"/></g><g id="A"><use transform="matrix(0.05,0,0,0.05,0,0)" xlink:href="#aw"/><use transform="matrix(0.05,0,0,0.05,12,0)" xlink:href="#aH"/><use transform="matrix(0.05,0,0,0.05,22,0)" xlink:href="#aC"/><use transform="matrix(0.05,0,0,0.05,27,0)" xlink:href="#aD"/><use transform="matrix(0.05,0,0,0.05,37.95,0)" xlink:href="#ao"/><use transform="matrix(0.05,0,0,0.05,47.95,0)" xlink:href="#ay"/><use transform="matrix(0.05,0,0,0.05,57.95,0)" xlink:href="#as"/><use transform="matrix(0.05,0,0,0.05,63.900000000000006,0)" xlink:href="#aM"/><use transform="matrix(0.030864197530864196,0,0,0.030864197530864196,73.9,0)" xlink:href="#aw"/></g><g id="B"><use transform="matrix(0.05,0,0,0.05,0,0)" xlink:href="#aM"/><use transform="matrix(0.030864197530864196,0,0,0.030864197530864196,10,0)" xlink:href="#aP"/></g><g id="C"><use transform="matrix(0.05,0,0,0.05,0,0)" xlink:href="#an"/><use transform="matrix(0.05,0,0,0.05,14,0)" xlink:href="#aD"/><use transform="matrix(0.05,0,0,0.05,24.950000000000003,0)" xlink:href="#ao"/><use transform="matrix(0.05,0,0,0.05,34.95,0)" xlink:href="#ay"/><use transform="matrix(0.05,0,0,0.05,44.95,0)" xlink:href="#as"/><use transform="matrix(0.05,0,0,0.05,50.900000000000006,0)" xlink:href="#aQ"/></g><use transform="matrix(0.05,0,0,0.05,0,0)" xlink:href="#aR" id="D"/><g id="E"><use transform="matrix(0.05,0,0,0.05,0,0)" xlink:href="#aN"/><use transform="matrix(0.05,0,0,0.05,12,0)" xlink:href="#aP"/></g><g id="F"><use transform="matrix(0.05,0,0,0.05,0,0)" xlink:href="#aN"/><use transform="matrix(0.05,0,0,0.05,12,0)" xlink:href="#ax"/><use transform="matrix(0.05,0,0,0.05,28,0)" xlink:href="#ar"/><use transform="matrix(0.05,0,0,0.05,38,0)" xlink:href="#aM"/></g><path fill="#666" d="M14-72v-43h91v43H14" id="aS"/><use transform="matrix(0.05,0,0,0.05,0,0)" xlink:href="#aS" id="G"/><path fill="#666" d="M15-91v-56l181-69v40L49-119l147 57v40" id="aT"/><use transform="matrix(0.05,0,0,0.05,0,0)" xlink:href="#aT" id="H"/><path fill="#666" d="M182 0l-62-99L58 0H3l86-130-79-118h55l55 88 55-88h55l-75 118L237 0h-55" id="aU"/><g id="I"><use transform="matrix(0.05,0,0,0.05,0,0)" xlink:href="#aU"/><use transform="matrix(0.05,0,0,0.05,12,0)" xlink:href="#aP"/></g><g id="J"><use transform="matrix(0.05,0,0,0.05,0,0)" xlink:href="#aU"/><use transform="matrix(0.05,0,0,0.05,12,0)" xlink:href="#aP"/></g><path fill="#666" d="M125-100v72H85v-72H15v-39h70v-72h40v72h71v39h-71" id="aV"/><g id="K"><use transform="matrix(0.05,0,0,0.05,0,0)" xlink:href="#aV"/><use transform="matrix(0.05,0,0,0.05,10.5,0)" xlink:href="#aN"/><use transform="matrix(0.05,0,0,0.05,22.5,0)" xlink:href="#aP"/></g><g id="L"><use transform="matrix(0.05,0,0,0.05,0,0)" xlink:href="#aE"/><use transform="matrix(0.05,0,0,0.05,10.950000000000001,0)" xlink:href="#aD"/></g><g id="M"><use transform="matrix(0.05,0,0,0.05,0,0)" xlink:href="#aC"/><use transform="matrix(0.05,0,0,0.05,5,0)" xlink:href="#aD"/></g><g id="N"><use transform="matrix(0.05,0,0,0.05,0,0)" xlink:href="#aK"/><use transform="matrix(0.05,0,0,0.05,12.950000000000001,0)" xlink:href="#aD"/><use transform="matrix(0.05,0,0,0.05,23.900000000000002,0)" xlink:href="#aw"/><use transform="matrix(0.05,0,0,0.05,35.900000000000006,0)" xlink:href="#aH"/><use transform="matrix(0.05,0,0,0.05,45.900000000000006,0)" xlink:href="#aC"/></g><g id="O"><use transform="matrix(0.05,0,0,0.05,0,0)" xlink:href="#aL"/><use transform="matrix(0.05,0,0,0.05,14.950000000000001,0)" xlink:href="#ar"/><use transform="matrix(0.05,0,0,0.05,24.950000000000003,0)" xlink:href="#aM"/><use transform="matrix(0.05,0,0,0.05,34.95,0)" xlink:href="#at"/><use transform="matrix(0.05,0,0,0.05,39.95,0)" xlink:href="#as"/><use transform="matrix(0.05,0,0,0.05,45.900000000000006,0)" xlink:href="#ao"/><use transform="matrix(0.05,0,0,0.05,55.900000000000006,0)" xlink:href="#aq"/></g><g id="P"><use transform="matrix(0.05,0,0,0.05,0,0)" xlink:href="#aQ"/><use transform="matrix(0.030864197530864196,0,0,0.030864197530864196,10,0)" xlink:href="#aP"/></g><g id="Q"><use transform="matrix(0.05,0,0,0.05,0,0)" xlink:href="#an"/><use transform="matrix(0.05,0,0,0.05,14,0)" xlink:href="#aD"/><use transform="matrix(0.05,0,0,0.05,24.950000000000003,0)" xlink:href="#ao"/><use transform="matrix(0.05,0,0,0.05,34.95,0)" xlink:href="#ay"/><use transform="matrix(0.05,0,0,0.05,44.95,0)" xlink:href="#as"/><use transform="matrix(0.05,0,0,0.05,50.900000000000006,0)" xlink:href="#aM"/></g><use transform="matrix(0.05,0,0,0.05,0,0)" xlink:href="#aO" id="R"/><g id="S"><use transform="matrix(0.05,0,0,0.05,0,0)" xlink:href="#aN"/><use transform="matrix(0.030864197530864196,0,0,0.030864197530864196,12,0)" xlink:href="#aP"/></g><path fill="#666" d="M86-200l42-18 12 35-44 11 32 37-32 21-26-44-26 44-32-21 33-37-44-11 12-35 42 18-3-48h38" id="aW"/><g id="T"><use transform="matrix(0.05,0,0,0.05,0,0)" xlink:href="#aG"/><use transform="matrix(0.05,0,0,0.05,14,0)" xlink:href="#aW"/><use transform="matrix(0.05,0,0,0.05,21,0)" xlink:href="#aN"/><use transform="matrix(0.04320987654320988,0,0,0.04320987654320988,33,0)" xlink:href="#aP"/></g><use transform="matrix(0.05,0,0,0.05,0,0)" xlink:href="#aV" id="U"/><path fill="#666" d="M67-93c0 74 22 123 53 168H70C40 30 18-18 18-93s22-123 52-168h50c-32 44-53 94-53 168" id="aX"/><path fill="#666" d="M102-93c0 74-22 123-52 168H0C30 29 54-18 53-93c0-74-22-123-53-168h50c30 45 52 94 52 168" id="aY"/><g id="V"><use transform="matrix(0.05,0,0,0.05,0,0)" xlink:href="#aH"/><use transform="matrix(0.05,0,0,0.05,10,0)" xlink:href="#aI"/><use transform="matrix(0.05,0,0,0.05,20,0)" xlink:href="#aW"/><use transform="matrix(0.05,0,0,0.05,27,0)" xlink:href="#aq"/><use transform="matrix(0.05,0,0,0.05,34,0)" xlink:href="#ar"/><use transform="matrix(0.05,0,0,0.05,44,0)" xlink:href="#ap"/><use transform="matrix(0.05,0,0,0.05,54.95,0)" xlink:href="#az"/><use transform="matrix(0.05,0,0,0.05,65.9,0)" xlink:href="#aX"/><use transform="matrix(0.05,0,0,0.05,71.85000000000001,0)" xlink:href="#aY"/><use transform="matrix(0.05,0,0,0.05,77.80000000000001,0)" xlink:href="#aW"/><use transform="matrix(0.05,0,0,0.05,84.80000000000001,0)" xlink:href="#aX"/><use transform="matrix(0.05,0,0,0.05,90.75000000000001,0)" xlink:href="#aw"/><use transform="matrix(0.05,0,0,0.05,102.75,0)" xlink:href="#aH"/><use transform="matrix(0.05,0,0,0.05,112.75,0)" xlink:href="#aC"/><use transform="matrix(0.05,0,0,0.05,117.75,0)" xlink:href="#aD"/><use transform="matrix(0.05,0,0,0.05,128.70000000000002,0)" xlink:href="#ao"/><use transform="matrix(0.05,0,0,0.05,138.70000000000002,0)" xlink:href="#ay"/><use transform="matrix(0.05,0,0,0.05,148.70000000000002,0)" xlink:href="#as"/><use transform="matrix(0.04938271604938272,0,0,0.04938271604938272,154.65,0)" xlink:href="#aP"/></g><use transform="matrix(0.05,0,0,0.05,0,0)" xlink:href="#aS" id="W"/><g id="X"><use transform="matrix(0.05,0,0,0.05,0,0)" xlink:href="#aU"/><use transform="matrix(0.030864197530864196,0,0,0.030864197530864196,12,0)" xlink:href="#aw"/><use transform="matrix(0.05,0,0,0.05,19.407407407407405,0)" xlink:href="#aY"/></g><g id="Y"><use transform="matrix(0.05,0,0,0.05,0,0)" xlink:href="#aH"/><use transform="matrix(0.05,0,0,0.05,10,0)" xlink:href="#aJ"/><use transform="matrix(0.05,0,0,0.05,20,0)" xlink:href="#aW"/><use transform="matrix(0.05,0,0,0.05,27,0)" xlink:href="#aq"/><use transform="matrix(0.05,0,0,0.05,34,0)" xlink:href="#ar"/><use transform="matrix(0.05,0,0,0.05,44,0)" xlink:href="#ap"/><use transform="matrix(0.05,0,0,0.05,54.95,0)" xlink:href="#az"/><use transform="matrix(0.05,0,0,0.05,65.9,0)" xlink:href="#aX"/><use transform="matrix(0.05,0,0,0.05,71.85000000000001,0)" xlink:href="#aY"/><use transform="matrix(0.05,0,0,0.05,77.80000000000001,0)" xlink:href="#aW"/><use transform="matrix(0.05,0,0,0.05,84.80000000000001,0)" xlink:href="#aX"/><use transform="matrix(0.05,0,0,0.05,90.75000000000001,0)" xlink:href="#an"/><use transform="matrix(0.05,0,0,0.05,104.75,0)" xlink:href="#aD"/><use transform="matrix(0.05,0,0,0.05,115.7,0)" xlink:href="#ao"/><use transform="matrix(0.05,0,0,0.05,125.7,0)" xlink:href="#ay"/><use transform="matrix(0.05,0,0,0.05,135.70000000000002,0)" xlink:href="#as"/><use transform="matrix(0.030864197530864196,0,0,0.030864197530864196,141.65,0)" xlink:href="#aP"/><use transform="matrix(0.05,0,0,0.05,148.40925925925927,0)" xlink:href="#aS"/><use transform="matrix(0.05,0,0,0.05,154.35925925925926,0)" xlink:href="#aU"/><use transform="matrix(0.030864197530864196,0,0,0.030864197530864196,166.35925925925926,0)" xlink:href="#aP"/><use transform="matrix(0.05,0,0,0.05,173.11851851851853,0)" xlink:href="#aY"/></g><path fill="#666" d="M146-102V0H94v-102L6-248h54l60 105 60-105h54" id="aZ"/><g id="Z"><use transform="matrix(0.05,0,0,0.05,0,0)" xlink:href="#aZ"/><use transform="matrix(0.05,0,0,0.05,11,0)" xlink:href="#ao"/><use transform="matrix(0.05,0,0,0.05,21,0)" xlink:href="#ay"/></g><path fill="#666" d="M110-194c64 0 96 36 96 99 0 64-35 99-97 99-61 0-95-36-95-99 0-62 34-99 96-99zm-1 164c35 0 45-28 45-65 0-40-10-65-43-65-34 0-45 26-45 65 0 36 10 65 43 65" id="ba"/><g id="aa"><use transform="matrix(0.05,0,0,0.05,0,0)" xlink:href="#aK"/><use transform="matrix(0.05,0,0,0.05,12.950000000000001,0)" xlink:href="#ba"/></g><use transform="matrix(0.05,0,0,0.05,0,0)" xlink:href="#as" id="ab"/><use transform="matrix(0.05,0,0,0.05,0,0)" xlink:href="#aV" id="ac"/><g id="ad"><use transform="matrix(0.05,0,0,0.05,0,0)" xlink:href="#aK"/><use transform="matrix(0.05,0,0,0.05,12.950000000000001,0)" xlink:href="#ba"/></g><g id="ae"><use transform="matrix(0.05,0,0,0.05,0,0)" xlink:href="#aZ"/><use transform="matrix(0.05,0,0,0.05,11,0)" xlink:href="#ao"/><use transform="matrix(0.05,0,0,0.05,21,0)" xlink:href="#ay"/></g><use transform="matrix(0.05,0,0,0.05,0,0)" xlink:href="#aP" id="af"/></defs></g></svg>